<svg width="50" height="50" viewBox="0 0 50 50" fill="none" xmlns="http://www.w3.org/2000/svg">
<rect width="50" height="50" rx="6" fill="#044872"/>
<path d="M10.276 34C9.79067 34 9.37467 33.8527 9.028 33.558C8.69867 33.246 8.534 32.8647 8.534 32.414V17.386C8.534 16.9353 8.69867 16.5627 9.028 16.268C9.35733 15.956 9.77333 15.8 10.276 15.8H16.048C17.5907 15.8 18.9513 16.0947 20.13 16.684C21.326 17.2733 22.2447 18.1053 22.886 19.18C23.5447 20.2373 23.874 21.4507 23.874 22.82V26.928C23.874 28.2973 23.5447 29.5193 22.886 30.594C22.2273 31.6687 21.3 32.5093 20.104 33.116C18.9253 33.7053 17.5733 34 16.048 34H10.276ZM15.788 31.01C17.296 31.01 18.44 30.672 19.22 29.996C20 29.3027 20.39 28.2887 20.39 26.954V22.768C20.39 21.468 20 20.48 19.22 19.804C18.44 19.128 17.296 18.79 15.788 18.79H12.018V31.01H15.788ZM28.2272 34C27.7592 34 27.3518 33.844 27.0052 33.532C26.6585 33.22 26.4852 32.8473 26.4852 32.414V17.386C26.4852 16.9527 26.6498 16.58 26.9792 16.268C27.3258 15.956 27.7418 15.8 28.2272 15.8H35.2212C36.8852 15.8 38.2112 16.268 39.1992 17.204C40.2045 18.1227 40.7072 19.362 40.7072 20.922C40.7072 21.6673 40.5078 22.378 40.1092 23.054C39.7105 23.7127 39.1818 24.224 38.5232 24.588V24.666C39.4245 24.978 40.1352 25.4893 40.6552 26.2C41.1925 26.9107 41.4612 27.7253 41.4612 28.644C41.4612 29.684 41.2185 30.6113 40.7332 31.426C40.2478 32.2407 39.5718 32.8733 38.7052 33.324C37.8385 33.7747 36.8505 34 35.7412 34H28.2272ZM35.1692 23.444C35.7412 23.444 36.2265 23.21 36.6252 22.742C37.0412 22.274 37.2492 21.7107 37.2492 21.052C37.2492 20.3413 37.0585 19.778 36.6772 19.362C36.3132 18.946 35.8105 18.738 35.1692 18.738H29.8652V23.444H35.1692ZM35.6892 31.062C36.3998 31.062 36.9632 30.854 37.3792 30.438C37.7952 30.0047 38.0032 29.4153 38.0032 28.67C38.0032 27.942 37.7952 27.3787 37.3792 26.98C36.9805 26.564 36.4172 26.356 35.6892 26.356H29.8652V31.062H35.6892Z" fill="white"/>
</svg>
