<svg width="302" height="58" viewBox="0 0 302 58" fill="none" xmlns="http://www.w3.org/2000/svg">
<g filter="url(#filter0_d_238_2635)">
<path d="M15.6432 49C14.3552 49 13.2512 48.609 12.3312 47.827C11.4572 46.999 11.0202 45.987 11.0202 44.791V4.909C11.0202 3.713 11.4572 2.724 12.3312 1.942C13.2052 1.114 14.3092 0.699997 15.6432 0.699997H30.9612C35.0552 0.699997 38.6662 1.482 41.7942 3.046C44.9682 4.61 47.4062 6.818 49.1082 9.67C50.8562 12.476 51.7302 15.696 51.7302 19.33V30.232C51.7302 33.866 50.8562 37.109 49.1082 39.961C47.3602 42.813 44.8992 45.044 41.7252 46.654C38.5972 48.218 35.0092 49 30.9612 49H15.6432ZM30.2712 41.065C34.2732 41.065 37.3092 40.168 39.3792 38.374C41.4492 36.534 42.4842 33.843 42.4842 30.301V19.192C42.4842 15.742 41.4492 13.12 39.3792 11.326C37.3092 9.532 34.2732 8.635 30.2712 8.635H20.2662V41.065H30.2712ZM63.2829 49C62.0409 49 60.9599 48.586 60.0399 47.758C59.1199 46.93 58.6599 45.941 58.6599 44.791V4.909C58.6599 3.759 59.0969 2.77 59.9709 1.942C60.8909 1.114 61.9949 0.699997 63.2829 0.699997H81.8439C86.2599 0.699997 89.7789 1.942 92.4009 4.426C95.0689 6.864 96.4029 10.153 96.4029 14.293C96.4029 16.271 95.8739 18.157 94.8159 19.951C93.7579 21.699 92.3549 23.056 90.6069 24.022V24.229C92.9989 25.057 94.8849 26.414 96.2649 28.3C97.6909 30.186 98.4039 32.348 98.4039 34.786C98.4039 37.546 97.7599 40.007 96.4719 42.169C95.1839 44.331 93.3899 46.01 91.0899 47.206C88.7899 48.402 86.1679 49 83.2239 49H63.2829ZM81.7059 20.986C83.2239 20.986 84.5119 20.365 85.5699 19.123C86.6739 17.881 87.2259 16.386 87.2259 14.638C87.2259 12.752 86.7199 11.257 85.7079 10.153C84.7419 9.049 83.4079 8.497 81.7059 8.497H67.6299V20.986H81.7059ZM83.0859 41.203C84.9719 41.203 86.4669 40.651 87.5709 39.547C88.6749 38.397 89.2269 36.833 89.2269 34.855C89.2269 32.923 88.6749 31.428 87.5709 30.37C86.5129 29.266 85.0179 28.714 83.0859 28.714H67.6299V41.203H83.0859ZM103.431 32.923C103.431 30.347 103.96 28.369 105.018 26.989C106.076 25.563 107.709 24.85 109.917 24.85H132.342C132.342 30.232 130.18 32.923 125.856 32.923H103.431Z" fill="white"/>
<path d="M142.088 49C141.628 49 141.214 48.816 140.846 48.448C140.478 48.08 140.294 47.666 140.294 47.206V2.425C140.294 1.965 140.455 1.574 140.777 1.252C141.145 0.883997 141.582 0.699997 142.088 0.699997H162.029C165.525 0.699997 168.308 1.873 170.378 4.219C172.448 6.519 173.483 9.624 173.483 13.534C173.483 15.926 172.839 18.157 171.551 20.227C170.309 22.251 168.745 23.631 166.859 24.367V24.505C169.665 25.287 171.804 26.667 173.276 28.645C174.748 30.577 175.484 33.038 175.484 36.028C175.484 39.892 174.426 43.02 172.31 45.412C170.24 47.804 167.503 49 164.099 49H142.088ZM161.891 23.194C163.409 23.194 164.812 22.757 166.1 21.883C167.388 21.009 168.4 19.836 169.136 18.364C169.918 16.846 170.309 15.213 170.309 13.465C170.309 10.429 169.573 8.083 168.101 6.427C166.629 4.725 164.559 3.874 161.891 3.874H143.813V23.194H161.891ZM163.271 45.826C166.123 45.826 168.331 44.975 169.895 43.273C171.505 41.525 172.31 39.11 172.31 36.028C172.31 32.992 171.505 30.646 169.895 28.99C168.331 27.288 166.123 26.437 163.271 26.437H143.813V45.826H163.271ZM186.561 49C186.055 49 185.618 48.839 185.25 48.517C184.928 48.195 184.767 47.804 184.767 47.344V3.874C184.767 2.678 185.066 1.758 185.664 1.114C186.308 0.423998 187.182 0.0789965 188.286 0.0789965V45.826H212.16C214.414 45.826 215.541 46.884 215.541 49H186.561ZM238.888 49.621C235.484 49.621 232.379 48.931 229.573 47.551C226.813 46.171 224.651 44.285 223.087 41.893C221.523 39.501 220.741 36.81 220.741 33.82V3.874C220.741 2.678 221.04 1.758 221.638 1.114C222.236 0.423998 223.11 0.0789965 224.26 0.0789965V33.82C224.26 36.212 224.881 38.374 226.123 40.306C227.365 42.192 229.09 43.664 231.298 44.722C233.552 45.78 236.082 46.309 238.888 46.309C241.694 46.309 244.201 45.78 246.409 44.722C248.663 43.664 250.411 42.192 251.653 40.306C252.895 38.374 253.516 36.212 253.516 33.82V3.874C253.516 2.632 253.815 1.689 254.413 1.045C255.011 0.400996 255.885 0.0789965 257.035 0.0789965V33.82C257.035 36.81 256.23 39.501 254.62 41.893C253.056 44.285 250.894 46.171 248.134 47.551C245.374 48.931 242.292 49.621 238.888 49.621ZM267.715 2.425C267.715 1.965 267.876 1.574 268.198 1.252C268.566 0.883997 269.003 0.699997 269.509 0.699997H299.869C299.869 2.816 298.719 3.874 296.419 3.874H271.234V23.056H291.589C291.589 25.218 290.416 26.299 288.07 26.299H271.234V45.826H297.868C300.122 45.826 301.249 46.884 301.249 49H269.509C269.003 49 268.566 48.839 268.198 48.517C267.876 48.149 267.715 47.712 267.715 47.206V2.425Z" fill="#01ACEA"/>
</g>
<defs>
<filter id="filter0_d_238_2635" x="0.0202637" y="0.0789795" width="301.229" height="57.542" filterUnits="userSpaceOnUse" color-interpolation-filters="sRGB">
<feFlood flood-opacity="0" result="BackgroundImageFix"/>
<feColorMatrix in="SourceAlpha" type="matrix" values="0 0 0 0 0 0 0 0 0 0 0 0 0 0 0 0 0 0 127 0" result="hardAlpha"/>
<feOffset dx="-7" dy="4"/>
<feGaussianBlur stdDeviation="2"/>
<feComposite in2="hardAlpha" operator="out"/>
<feColorMatrix type="matrix" values="0 0 0 0 0 0 0 0 0 0 0 0 0 0 0 0 0 0 0.25 0"/>
<feBlend mode="normal" in2="BackgroundImageFix" result="effect1_dropShadow_238_2635"/>
<feBlend mode="normal" in="SourceGraphic" in2="effect1_dropShadow_238_2635" result="shape"/>
</filter>
</defs>
</svg>
