<svg width="294" height="119" viewBox="0 0 294 119" fill="none" xmlns="http://www.w3.org/2000/svg">
<path d="M1 73.2228C1.19728 72.5119 1.37811 71.6317 1.54253 70.5825C1.70692 69.5329 1.85485 68.2296 1.98637 66.6723C2.1179 65.1153 2.21652 63.2701 2.28228 61.1375C2.34804 58.9711 2.38094 56.4488 2.38094 53.5715V20.5146C2.38094 17.6372 2.34804 15.1321 2.28228 12.9995C2.21652 10.8326 2.1179 8.97088 1.98637 7.41367C1.85485 5.82263 1.70692 4.50238 1.54253 3.45296C1.37811 2.4035 1.19728 1.52334 1 0.812459V0.609334H12.7871V0.812459C12.5898 1.52334 12.3925 2.4035 12.1953 3.45296C12.0309 4.50238 11.8829 5.82263 11.7514 7.41367C11.6528 8.97088 11.5541 10.8326 11.4555 12.9995C11.3897 15.1321 11.3568 17.6372 11.3568 20.5146V53.5715C11.3568 56.4488 11.3897 58.9711 11.4555 61.1375C11.5541 63.2701 11.6528 65.1153 11.7514 66.6723C11.8829 68.2296 12.0309 69.5329 12.1953 70.5825C12.3925 71.6317 12.5898 72.5119 12.7871 73.2228V73.426H1V73.2228ZM77.9857 20.5146C77.9857 17.6372 77.9529 15.1321 77.8872 12.9995C77.8212 10.8326 77.7227 8.97088 77.591 7.41367C77.4597 5.82263 77.3118 4.50238 77.1474 3.45296C76.9829 2.4035 76.8021 1.52334 76.6048 0.812459V0.609334H85.3835V0.812459C85.1862 1.52334 84.9888 2.4035 84.7915 3.45296C84.6274 4.50238 84.4795 5.82263 84.3478 7.41367C84.249 8.97088 84.1505 10.8326 84.052 12.9995C83.986 15.1321 83.9532 17.6372 83.9532 20.5146V47.935C83.9532 52.776 83.2794 56.906 81.9313 60.3252C80.5833 63.7441 78.7089 66.5538 76.309 68.7544C73.9087 70.9208 71.0319 72.4949 67.6783 73.4769C64.3246 74.4923 60.6585 75 56.6804 75C52.7019 75 48.9868 74.5261 45.5343 73.5782C42.1149 72.6304 39.1231 71.1073 36.5583 69.008C34.0267 66.8754 32.0376 64.1333 30.5908 60.7821C29.1443 57.3967 28.421 53.2837 28.421 48.4427V20.5146C28.421 17.6372 28.3881 15.1321 28.3223 12.9995C28.2565 10.8326 28.1579 8.97088 28.0264 7.41367C27.8949 5.82263 27.7305 4.50238 27.5332 3.45296C27.3688 2.4035 27.188 1.52334 26.9907 0.812459V0.609334H38.8273V0.812459C38.6299 1.52334 38.4326 2.4035 38.2353 3.45296C38.0708 4.50238 37.9229 5.82263 37.7913 7.41367C37.6599 8.97088 37.5611 10.8326 37.4955 12.9995C37.4298 15.1321 37.397 17.6372 37.397 20.5146V49.0013C37.397 53.03 37.9723 56.3641 39.1231 59.0049C40.3066 61.6114 41.852 63.6935 43.7588 65.2505C45.6659 66.774 47.8357 67.8403 50.2688 68.4498C52.7019 69.0589 55.1845 69.3635 57.716 69.3635C60.2476 69.3635 62.7302 69.0589 65.1629 68.4498C67.596 67.8403 69.7495 66.774 71.6235 65.2505C73.5307 63.6935 75.0595 61.6114 76.2102 59.0049C77.3941 56.3641 77.9857 53.03 77.9857 49.0013V20.5146ZM109.5 53.5715C109.5 56.4488 109.533 58.9711 109.599 61.1375C109.697 63.2701 109.796 65.1153 109.895 66.6723C110.026 68.2296 110.174 69.5329 110.339 70.5825C110.536 71.6317 110.733 72.5119 110.93 73.2228V73.426H99.094V73.2228C99.2913 72.5119 99.4721 71.6317 99.6366 70.5825C99.8339 69.5329 99.9818 68.2296 100.08 66.6723C100.212 65.1153 100.31 63.2701 100.376 61.1375C100.475 59.0049 100.524 56.483 100.524 53.5715V20.5146C100.524 17.6372 100.475 15.1321 100.376 12.9995C100.31 10.8326 100.212 8.97088 100.08 7.41367C99.9818 5.85646 99.8339 4.55315 99.6366 3.50373C99.4721 2.42044 99.2913 1.52334 99.094 0.812459V0.609334L101.165 0.812459C101.79 0.880167 102.481 0.930938 103.237 0.964774C104.026 0.964774 104.831 0.964774 105.653 0.964774C106.936 0.964774 108.662 0.812458 110.832 0.50779C113.035 0.16925 115.829 0 119.216 0C122.372 0 125.282 0.440082 127.945 1.32025C130.641 2.20042 132.976 3.48679 134.948 5.17942C136.921 6.87205 138.45 8.95398 139.535 11.425C140.653 13.8626 141.212 16.6385 141.212 19.7528C141.212 22.1904 140.899 24.4586 140.275 26.5574C139.683 28.6221 138.828 30.501 137.71 32.1935C136.625 33.8864 135.31 35.3929 133.765 36.7129C132.219 37.9994 130.493 39.0828 128.586 39.9627L145.897 64.9968C146.752 66.2492 147.541 67.3326 148.264 68.2467C149.021 69.1607 149.727 69.9563 150.385 70.633C151.075 71.2762 151.733 71.8181 152.358 72.2579C152.982 72.6642 153.623 72.9858 154.281 73.2228V73.426H140.028C139.929 72.7827 139.601 71.9366 139.042 70.887C138.516 69.8036 137.891 68.7373 137.168 67.6881L119.709 42.3494C118.953 42.417 118.197 42.4849 117.44 42.5525C116.684 42.5863 115.911 42.6034 115.122 42.6034C114.202 42.6034 113.265 42.5696 112.311 42.5016C111.391 42.434 110.454 42.3156 109.5 42.1462V53.5715ZM109.5 38.1855C110.388 38.3887 111.292 38.5409 112.213 38.6427C113.133 38.7103 114.021 38.7441 114.876 38.7441C117.342 38.7441 119.594 38.3716 121.632 37.6269C123.671 36.8484 125.397 35.6803 126.811 34.1234C128.257 32.5661 129.375 30.6366 130.165 28.3346C130.953 25.9988 131.348 23.2734 131.348 20.1591C131.348 17.6202 131.069 15.3182 130.51 13.2531C129.951 11.1881 129.112 9.44484 127.994 8.02301C126.909 6.56738 125.528 5.45025 123.852 4.67163C122.175 3.85917 120.219 3.45296 117.983 3.45296C115.714 3.45296 113.906 3.57144 112.558 3.8084C111.21 4.04536 110.191 4.29925 109.5 4.57009V38.1855ZM159.213 73.2228C159.41 72.5119 159.591 71.6317 159.755 70.5825C159.92 69.5329 160.068 68.2296 160.199 66.6723C160.331 65.1153 160.429 63.2701 160.495 61.1375C160.561 58.9711 160.594 56.4488 160.594 53.5715V20.5146C160.594 17.6372 160.561 15.1321 160.495 12.9995C160.429 10.8326 160.331 8.97088 160.199 7.41367C160.068 5.82263 159.92 4.50238 159.755 3.45296C159.591 2.4035 159.41 1.52334 159.213 0.812459V0.609334H171V0.812459C170.803 1.52334 170.605 2.4035 170.408 3.45296C170.244 4.50238 170.096 5.82263 169.964 7.41367C169.866 8.97088 169.767 10.8326 169.668 12.9995C169.603 15.1321 169.57 17.6372 169.57 20.5146V53.5715C169.57 56.4488 169.603 58.9711 169.668 61.1375C169.767 63.2701 169.866 65.1153 169.964 66.6723C170.096 68.2296 170.244 69.5329 170.408 70.5825C170.605 71.6317 170.803 72.5119 171 73.2228V73.426H159.213V73.2228Z" fill="white"/>
<path d="M189.448 71.913C191.107 71.913 192.632 71.8403 194.024 71.6956C195.415 71.5506 196.631 71.384 197.671 71.1955C198.88 70.9926 199.983 70.7536 200.981 70.4783L200.37 74C200.201 73.9855 199.948 73.9711 199.61 73.9566C199.273 73.9418 198.894 73.9273 198.472 73.9128C198.065 73.8983 197.629 73.8839 197.165 73.8694C196.715 73.8694 196.286 73.8624 195.879 73.8479C195.471 73.8479 195.106 73.8405 194.782 73.826C194.473 73.826 194.248 73.826 194.108 73.826H185V73.7392C185.084 73.4346 185.162 73.058 185.232 72.6087C185.316 72.1594 185.386 71.6014 185.443 70.9347C185.499 70.268 185.541 69.4781 185.569 68.565C185.597 67.6375 185.611 66.5578 185.611 65.3261V51.1737C185.611 49.9419 185.597 48.8693 185.569 47.9563C185.541 47.0287 185.499 46.2318 185.443 45.5651C185.386 44.8839 185.316 44.3188 185.232 43.8695C185.162 43.4202 185.084 43.0433 185 42.7391V42.6522H190.06V42.7391C189.976 43.0433 189.891 43.4202 189.807 43.8695C189.737 44.3188 189.673 44.8839 189.617 45.5651C189.575 46.2318 189.533 47.0287 189.491 47.9563C189.462 48.8693 189.448 49.9419 189.448 51.1737V71.913ZM205.05 73.7392C205.134 73.4346 205.212 73.058 205.282 72.6087C205.352 72.1594 205.415 71.6014 205.472 70.9347C205.528 70.268 205.57 69.4781 205.598 68.565C205.626 67.6375 205.64 66.5578 205.64 65.3261V51.1737C205.64 49.9419 205.626 48.8693 205.598 47.9563C205.57 47.0287 205.528 46.2318 205.472 45.5651C205.415 44.8839 205.352 44.3188 205.282 43.8695C205.212 43.4202 205.134 43.0433 205.05 42.7391V42.6522H210.089V42.7391C210.005 43.0433 209.92 43.4202 209.836 43.8695C209.766 44.3188 209.702 44.8839 209.646 45.5651C209.604 46.2318 209.562 47.0287 209.52 47.9563C209.491 48.8693 209.477 49.9419 209.477 51.1737V65.3261C209.477 66.5578 209.491 67.6375 209.52 68.565C209.562 69.4781 209.604 70.268 209.646 70.9347C209.702 71.6014 209.766 72.1594 209.836 72.6087C209.92 73.058 210.005 73.4346 210.089 73.7392V73.826H205.05V73.7392ZM214.833 73.7392C214.987 73.5073 215.163 73.1667 215.36 72.7174C215.557 72.2536 215.711 71.6737 215.824 70.9781C215.978 69.9637 216.147 68.8258 216.329 67.5651C216.526 66.2899 216.723 64.9565 216.92 63.5652C217.131 62.1739 217.334 60.7537 217.531 59.3041C217.742 57.8405 217.939 56.4058 218.122 55C218.319 53.5797 218.501 52.2174 218.67 50.9129C218.852 49.5943 219.014 48.3911 219.155 47.3044C219.295 46.2173 219.408 45.2753 219.492 44.478C219.59 43.6666 219.661 43.0578 219.703 42.6522H222.381L235.642 68.2174L248.798 42.6522H250.8L254.258 68.4782C254.357 69.2896 254.462 69.9853 254.574 70.5651C254.687 71.1447 254.799 71.6448 254.912 72.0652C255.024 72.4711 255.129 72.8116 255.228 73.0869C255.34 73.3478 255.446 73.5652 255.544 73.7392V73.826H250.231V73.7392C250.301 73.5796 250.365 73.3188 250.421 72.9563C250.491 72.5942 250.526 72.1594 250.526 71.6522C250.526 71.4637 250.519 71.2753 250.505 71.0868C250.491 70.8839 250.47 70.6664 250.442 70.4345L247.764 49.6088L235.325 73.7392L233.871 73.5652L221.347 49.3914C220.855 52.8258 220.427 55.9999 220.061 58.9131C219.907 60.1593 219.752 61.4055 219.597 62.6522C219.443 63.8839 219.302 65.0363 219.176 66.1085C219.063 67.1811 218.972 68.1302 218.902 68.9564C218.831 69.7678 218.796 70.3696 218.796 70.7607C218.796 71.2534 218.81 71.6882 218.838 72.0652C218.867 72.4421 218.895 72.7608 218.923 73.0216C218.965 73.3259 219.007 73.5941 219.049 73.826H214.833V73.7392ZM281.223 73.826V73.7392C281.252 73.6665 281.273 73.5578 281.287 73.4131C281.301 73.268 281.308 73.1378 281.308 73.0216C281.308 72.5723 281.244 72.0796 281.118 71.5435C281.005 70.9926 280.781 70.3114 280.443 69.5L277.892 63.5867C277.105 63.5578 276.058 63.5433 274.751 63.5433C273.444 63.5433 272.031 63.5433 270.513 63.5433C269.403 63.5433 268.328 63.5433 267.287 63.5433C266.261 63.5433 265.334 63.5578 264.504 63.5867L262.08 69.326C261.869 69.8621 261.644 70.449 261.405 71.0868C261.166 71.7246 261.047 72.3694 261.047 73.0216C261.047 73.2101 261.061 73.3696 261.089 73.4999C261.117 73.616 261.145 73.6954 261.173 73.7392V73.826H256.872V73.7392C257.125 73.4635 257.442 72.9782 257.821 72.2826C258.2 71.5725 258.615 70.6883 259.065 69.6302L271.146 42H272.832L284.28 68.565C284.547 69.1883 284.822 69.7971 285.103 70.3911C285.398 70.971 285.672 71.4927 285.925 71.9565C286.178 72.4202 286.403 72.8116 286.6 73.1303C286.796 73.449 286.93 73.652 287 73.7392V73.826H281.223ZM267.562 61.6738C268.377 61.6738 269.213 61.6738 270.071 61.6738C270.928 61.6593 271.764 61.6523 272.579 61.6523C273.409 61.6374 274.203 61.6304 274.962 61.6304C275.721 61.6159 276.409 61.6014 277.028 61.587L271.104 47.7826L265.285 61.6738H267.562Z" fill="#01ACEA"/>
<path d="M4.47276 110.084C4.47276 111.32 4.48687 112.402 4.51516 113.332C4.55756 114.248 4.59996 115.04 4.64232 115.708C4.69887 116.377 4.76247 116.936 4.83312 117.387C4.91793 117.837 5.00269 118.215 5.08749 118.52V118.608H0V118.52C0.0848005 118.215 0.16251 117.837 0.233165 117.387C0.317966 116.936 0.388621 116.377 0.445167 115.708C0.501676 115.04 0.544077 114.248 0.572331 113.332C0.600622 112.402 0.614732 111.32 0.614732 110.084V95.8936C0.614732 94.6585 0.600622 93.583 0.572331 92.6674C0.544077 91.7374 0.501676 90.9382 0.445167 90.2697C0.388621 89.5867 0.317966 89.0201 0.233165 88.5696C0.16251 88.119 0.0848005 87.7411 0 87.436V87.349C1.17295 87.349 2.36002 87.349 3.56126 87.349C4.76247 87.3344 5.92833 87.327 7.05889 87.327C8.18944 87.3125 9.26348 87.298 10.281 87.2835C11.2985 87.2545 12.217 87.2325 13.0367 87.218C13.8564 87.189 14.5488 87.16 15.1141 87.131C15.6794 87.0871 16.0821 87.0435 16.3224 87L15.2837 89.8992C14.8173 89.7682 14.2732 89.6522 13.6514 89.5506C13.1144 89.4632 12.4573 89.3832 11.68 89.3106C10.9169 89.2236 10.0337 89.1797 9.03028 89.1797C8.69112 89.1797 8.26718 89.1946 7.75842 89.2236C7.24969 89.2381 6.74797 89.2597 6.25339 89.2887C5.68811 89.3181 5.09454 89.3471 4.47276 89.3761V100.384C5.92833 100.37 7.2638 100.326 8.47915 100.253C9.6945 100.181 10.7403 100.108 11.6164 100.035C12.6339 99.9483 13.5525 99.8464 14.3722 99.7303L13.7362 102.891C12.6763 102.76 11.6023 102.637 10.5141 102.52C9.58145 102.419 8.57806 102.331 7.50405 102.259C6.43001 102.172 5.4196 102.128 4.47276 102.128V110.084ZM50.1279 119C48.5592 119 47.0897 118.746 45.7189 118.237C44.3481 117.728 43.1539 116.987 42.1362 116.013C41.1189 115.025 40.3132 113.812 39.7199 112.373C39.1403 110.92 38.8506 109.263 38.8506 107.403C38.8506 105.761 39.119 104.243 39.6562 102.847C40.1931 101.438 40.9351 100.217 41.8819 99.1853C42.8287 98.1536 43.931 97.3471 45.1889 96.7656C46.4605 96.1845 47.8313 95.8936 49.3012 95.8936C50.7566 95.8936 52.1064 96.1551 53.3499 96.6786C54.5936 97.1871 55.6678 97.9356 56.5722 98.9237C57.4908 99.8973 58.2114 101.111 58.7342 102.564C59.2714 104.003 59.5608 105.645 59.6032 107.49C58.0063 107.461 56.4094 107.439 54.8125 107.425C53.2156 107.41 51.5551 107.403 49.8312 107.403C48.6015 107.403 47.4004 107.41 46.2276 107.425C45.0688 107.439 44.0229 107.461 43.0902 107.49C43.1749 109.002 43.401 110.368 43.7686 111.589C44.1502 112.809 44.6658 113.856 45.3159 114.727C45.9801 115.585 46.7785 116.246 47.7112 116.711C48.6583 117.176 49.7252 117.408 50.9122 117.408C51.732 117.408 52.5022 117.314 53.2229 117.125C53.9576 116.922 54.6219 116.646 55.2155 116.297C55.8089 115.948 56.3389 115.541 56.8052 115.076C57.2715 114.597 57.6673 114.081 57.9922 113.529L58.2465 113.659L56.6782 117.539C55.9149 117.946 55.0035 118.295 53.9435 118.586C52.8835 118.862 51.6119 119 50.1279 119ZM47.3085 105.703C48.7216 105.703 50.1351 105.703 51.5482 105.703C52.9754 105.688 54.2684 105.659 55.4275 105.616C55.3002 104.352 55.06 103.218 54.7065 102.215C54.3534 101.212 53.9012 100.362 53.3499 99.6648C52.7989 98.9673 52.1488 98.4297 51.3999 98.0517C50.6506 97.6737 49.824 97.4851 48.9195 97.4851C48.1001 97.4851 47.344 97.6737 46.6516 98.0517C45.9732 98.4152 45.3795 98.9453 44.8709 99.6429C44.3622 100.34 43.9523 101.198 43.6412 102.215C43.3304 103.218 43.1467 104.366 43.0902 105.659C43.7262 105.688 44.3973 105.703 45.1039 105.703C45.8104 105.703 46.5456 105.703 47.3085 105.703ZM85.6504 104.809C85.6504 103.574 85.6294 102.499 85.5867 101.583C85.5585 100.653 85.5162 99.8538 85.4597 99.1853C85.4174 98.5167 85.3537 97.9572 85.2687 97.5067C85.1982 97.0562 85.1204 96.6786 85.0357 96.3731V96.2861H89.9324V96.3731C89.8195 96.7076 89.7204 97.1146 89.6357 97.5941C89.5648 98.0737 89.5084 98.6912 89.4661 99.4468C89.9888 98.9963 90.5329 98.5532 91.0984 98.1172C91.6635 97.6812 92.2431 97.2961 92.8364 96.9617C93.4301 96.6276 94.0306 96.3586 94.6384 96.1551C95.2603 95.952 95.8818 95.8501 96.5037 95.8501C96.8854 95.8501 97.2175 95.872 97.5 95.9155C97.7826 95.9446 98.0369 95.9955 98.263 96.0681C98.4891 96.1261 98.6943 96.199 98.8781 96.2861C99.0615 96.3586 99.2384 96.4316 99.4077 96.5041L98.369 100.667L98.0087 100.58C97.8394 99.9409 97.5214 99.4323 97.0551 99.0543C96.5887 98.6622 95.9527 98.4658 95.147 98.4658C94.7089 98.4658 94.2498 98.5458 93.7694 98.7057C93.2886 98.8657 92.8013 99.0908 92.3067 99.3813C91.8118 99.6574 91.3173 99.9844 90.8227 100.362C90.3282 100.726 89.8477 101.111 89.3814 101.517C89.3532 101.939 89.3387 102.397 89.3387 102.891C89.3387 103.385 89.3387 103.908 89.3387 104.461V110.084C89.3387 111.32 89.3532 112.402 89.3814 113.332C89.4096 114.248 89.452 115.04 89.5084 115.708C89.5648 116.377 89.6285 116.936 89.6994 117.387C89.77 117.837 89.8477 118.215 89.9324 118.52V118.608H85.0357V118.52C85.1204 118.215 85.1982 117.837 85.2687 117.387C85.3537 116.936 85.4174 116.377 85.4597 115.708C85.5162 115.04 85.5585 114.248 85.5867 113.332C85.6294 112.402 85.6504 111.32 85.6504 110.084V104.809ZM124.183 104.809C124.183 103.574 124.162 102.499 124.12 101.583C124.091 100.653 124.049 99.8538 123.992 99.1853C123.95 98.5167 123.886 97.9572 123.802 97.5067C123.731 97.0562 123.653 96.6786 123.568 96.3731V96.2861H128.465V96.3731C128.352 96.7076 128.253 97.1146 128.168 97.5941C128.098 98.0737 128.041 98.6912 127.999 99.4468C128.522 98.9963 129.066 98.5532 129.631 98.1172C130.196 97.6812 130.776 97.2961 131.369 96.9617C131.963 96.6276 132.563 96.3586 133.171 96.1551C133.793 95.952 134.415 95.8501 135.036 95.8501C135.418 95.8501 135.75 95.872 136.033 95.9155C136.315 95.9446 136.57 95.9955 136.796 96.0681C137.022 96.1261 137.227 96.199 137.411 96.2861C137.594 96.3586 137.771 96.4316 137.941 96.5041L136.902 100.667L136.542 100.58C136.372 99.9409 136.054 99.4323 135.588 99.0543C135.121 98.6622 134.485 98.4658 133.68 98.4658C133.242 98.4658 132.782 98.5458 132.302 98.7057C131.821 98.8657 131.334 99.0908 130.839 99.3813C130.345 99.6574 129.85 99.9844 129.355 100.362C128.861 100.726 128.38 101.111 127.914 101.517C127.886 101.939 127.872 102.397 127.872 102.891C127.872 103.385 127.872 103.908 127.872 104.461V110.084C127.872 111.32 127.886 112.402 127.914 113.332C127.942 114.248 127.984 115.04 128.041 115.708C128.098 116.377 128.161 116.936 128.232 117.387C128.302 117.837 128.38 118.215 128.465 118.52V118.608H123.568V118.52C123.653 118.215 123.731 117.837 123.802 117.387C123.886 116.936 123.95 116.377 123.992 115.708C124.049 115.04 124.091 114.248 124.12 113.332C124.162 112.402 124.183 111.32 124.183 110.084V104.809ZM172.212 119C170.644 119 169.174 118.746 167.803 118.237C166.432 117.728 165.238 116.987 164.221 116.013C163.203 115.025 162.398 113.812 161.804 112.373C161.225 110.92 160.935 109.263 160.935 107.403C160.935 105.761 161.204 104.243 161.741 102.847C162.278 101.438 163.02 100.217 163.966 99.1853C164.913 98.1536 166.016 97.3471 167.273 96.7656C168.545 96.1845 169.916 95.8936 171.386 95.8936C172.841 95.8936 174.191 96.1551 175.434 96.6786C176.678 97.1871 177.752 97.9356 178.656 98.9237C179.575 99.8973 180.296 101.111 180.819 102.564C181.356 104.003 181.645 105.645 181.688 107.49C180.091 107.461 178.494 107.439 176.897 107.425C175.3 107.41 173.64 107.403 171.916 107.403C170.686 107.403 169.485 107.41 168.312 107.425C167.153 107.439 166.107 107.461 165.175 107.49C165.259 109.002 165.486 110.368 165.853 111.589C166.234 112.809 166.75 113.856 167.4 114.727C168.065 115.585 168.863 116.246 169.796 116.711C170.743 117.176 171.81 117.408 172.997 117.408C173.816 117.408 174.586 117.314 175.307 117.125C176.042 116.922 176.706 116.646 177.3 116.297C177.893 115.948 178.423 115.541 178.89 115.076C179.356 114.597 179.752 114.081 180.077 113.529L180.331 113.659L178.762 117.539C177.999 117.946 177.088 118.295 176.028 118.586C174.968 118.862 173.696 119 172.212 119ZM169.393 105.703C170.806 105.703 172.219 105.703 173.633 105.703C175.06 105.688 176.353 105.659 177.512 105.616C177.385 104.352 177.145 103.218 176.791 102.215C176.438 101.212 175.986 100.362 175.434 99.6648C174.883 98.9673 174.233 98.4297 173.484 98.0517C172.735 97.6737 171.909 97.4851 171.004 97.4851C170.184 97.4851 169.429 97.6737 168.736 98.0517C168.058 98.4152 167.464 98.9453 166.955 99.6429C166.446 100.34 166.037 101.198 165.726 102.215C165.415 103.218 165.231 104.366 165.175 105.659C165.811 105.688 166.482 105.703 167.188 105.703C167.895 105.703 168.63 105.703 169.393 105.703ZM207.862 104.809C207.862 103.574 207.841 102.499 207.799 101.583C207.77 100.653 207.728 99.8538 207.671 99.1853C207.629 98.5167 207.565 97.9572 207.481 97.5067C207.41 97.0562 207.332 96.6786 207.247 96.3731V96.2861H212.144V96.3731C212.059 96.6786 211.982 97.0562 211.911 97.5067C211.84 97.9572 211.777 98.5167 211.72 99.1853C211.663 99.8538 211.621 100.653 211.593 101.583C211.565 102.499 211.551 103.574 211.551 104.809V110.084C211.551 111.32 211.565 112.402 211.593 113.332C211.621 114.248 211.663 115.04 211.72 115.708C211.777 116.377 211.84 116.936 211.911 117.387C211.982 117.837 212.059 118.215 212.144 118.52V118.608H207.247V118.52C207.332 118.215 207.41 117.837 207.481 117.387C207.565 116.936 207.629 116.377 207.671 115.708C207.728 115.04 207.77 114.248 207.799 113.332C207.841 112.402 207.862 111.32 207.862 110.084V104.809ZM207.417 89.6812C207.417 89.3616 207.473 89.0636 207.587 88.7876C207.714 88.4966 207.876 88.2496 208.074 88.0465C208.272 87.8285 208.505 87.6611 208.774 87.545C209.056 87.4141 209.36 87.349 209.685 87.349C210.01 87.349 210.307 87.4141 210.576 87.545C210.858 87.6611 211.098 87.8285 211.296 88.0465C211.508 88.2496 211.671 88.4966 211.784 88.7876C211.911 89.0636 211.975 89.3616 211.975 89.6812C211.975 90.3497 211.755 90.9092 211.317 91.3597C210.879 91.8103 210.335 92.0353 209.685 92.0353C209.36 92.0353 209.056 91.9773 208.774 91.8609C208.505 91.7303 208.272 91.5632 208.074 91.3597C207.876 91.1417 207.714 90.8947 207.587 90.6187C207.473 90.3278 207.417 90.0156 207.417 89.6812ZM239.696 104.809C239.696 103.574 239.675 102.499 239.632 101.583C239.604 100.653 239.562 99.8538 239.506 99.1853C239.463 98.5167 239.4 97.9572 239.315 97.5067C239.244 97.0562 239.166 96.6786 239.082 96.3731V96.2861H243.978V96.3731C243.865 96.7076 243.766 97.1146 243.682 97.5941C243.611 98.0737 243.554 98.6912 243.512 99.4468C244.035 98.9963 244.579 98.5532 245.144 98.1172C245.709 97.6812 246.289 97.2961 246.883 96.9617C247.476 96.6276 248.076 96.3586 248.684 96.1551C249.306 95.952 249.928 95.8501 250.549 95.8501C250.931 95.8501 251.263 95.872 251.546 95.9155C251.828 95.9446 252.083 95.9955 252.309 96.0681C252.535 96.1261 252.74 96.199 252.924 96.2861C253.108 96.3586 253.284 96.4316 253.454 96.5041L252.415 100.667L252.054 100.58C251.885 99.9409 251.567 99.4323 251.101 99.0543C250.634 98.6622 249.999 98.4658 249.193 98.4658C248.755 98.4658 248.296 98.5458 247.815 98.7057C247.335 98.8657 246.847 99.0908 246.352 99.3813C245.858 99.6574 245.363 99.9844 244.868 100.362C244.374 100.726 243.894 101.111 243.427 101.517C243.399 101.939 243.385 102.397 243.385 102.891C243.385 103.385 243.385 103.908 243.385 104.461V110.084C243.385 111.32 243.399 112.402 243.427 113.332C243.455 114.248 243.498 115.04 243.554 115.708C243.611 116.377 243.674 116.936 243.745 117.387C243.816 117.837 243.894 118.215 243.978 118.52V118.608H239.082V118.52C239.166 118.215 239.244 117.837 239.315 117.387C239.4 116.936 239.463 116.377 239.506 115.708C239.562 115.04 239.604 114.248 239.632 113.332C239.675 112.402 239.696 111.32 239.696 110.084V104.809ZM275.643 112.177C275.643 111.029 275.869 110.033 276.321 109.191C276.787 108.348 277.402 107.628 278.165 107.033C278.928 106.437 279.798 105.957 280.773 105.594C281.748 105.216 282.758 104.926 283.804 104.722C284.85 104.504 285.881 104.359 286.899 104.286C287.916 104.199 288.849 104.148 289.697 104.134V103.022C289.697 102.063 289.577 101.234 289.337 100.537C289.096 99.8393 288.757 99.2652 288.319 98.8147C287.881 98.3497 287.351 98.0082 286.729 97.7902C286.122 97.5577 285.451 97.4412 284.715 97.4412C284.207 97.4412 283.705 97.4851 283.21 97.5722C282.716 97.6592 282.2 97.8047 281.663 98.0082C281.14 98.2117 280.582 98.4877 279.988 98.8363C279.409 99.1853 278.78 99.6283 278.102 100.166L277.89 100.035L279.331 96.9617C279.798 96.7437 280.257 96.5696 280.709 96.4386C281.161 96.2935 281.621 96.1771 282.087 96.09C282.553 96.0026 283.027 95.9446 283.507 95.9155C284.002 95.872 284.517 95.8501 285.055 95.8501C286.538 95.8501 287.803 96.0391 288.849 96.417C289.909 96.7801 290.771 97.2887 291.435 97.9427C292.114 98.5822 292.608 99.3378 292.919 100.21C293.23 101.067 293.385 101.99 293.385 102.978V110.084C293.385 111.32 293.399 112.402 293.428 113.332C293.47 114.248 293.513 115.04 293.555 115.708C293.611 116.377 293.675 116.936 293.746 117.387C293.831 117.837 293.915 118.215 294 118.52V118.608H289.315V118.52C289.386 118.288 289.435 118.026 289.464 117.735C289.506 117.445 289.541 117.096 289.57 116.689C289.273 116.951 288.92 117.22 288.51 117.496C288.114 117.772 287.655 118.026 287.132 118.259C286.623 118.477 286.051 118.651 285.415 118.782C284.793 118.927 284.108 119 283.359 119C280.9 119 278.999 118.411 277.657 117.234C276.314 116.042 275.643 114.357 275.643 112.177ZM289.697 105.834C288.411 105.848 287.174 105.928 285.987 106.074C284.8 106.204 283.748 106.488 282.829 106.924C281.924 107.36 281.197 107.984 280.645 108.798C280.108 109.597 279.84 110.666 279.84 112.003C279.84 113.717 280.257 115.025 281.091 115.926C281.924 116.827 283.076 117.278 284.546 117.278C285.224 117.278 285.839 117.183 286.39 116.994C286.955 116.791 287.45 116.544 287.874 116.253C288.312 115.948 288.679 115.621 288.976 115.272C289.273 114.909 289.499 114.56 289.655 114.226C289.683 113.674 289.697 113.064 289.697 112.395C289.697 111.712 289.697 110.942 289.697 110.084V105.834Z" fill="white"/>
</svg>
